<?xml version="1.0" standalone="no"?><!DOCTYPE svg PUBLIC "-//W3C//DTD SVG 1.1//EN" "http://www.w3.org/Graphics/SVG/1.1/DTD/svg11.dtd"><svg t="1612097580162" class="icon" viewBox="0 0 1024 1024" version="1.1" xmlns="http://www.w3.org/2000/svg" p-id="756" width="32" height="32" xmlns:xlink="http://www.w3.org/1999/xlink"><defs><style type="text/css"></style></defs><path d="M516.482 162.029c-192.973-2.471-351.98 152.519-354.455 345.493-1.97 153.989 96.299 286.338 234.145 334.787 34.904 12.271 72.358 19.165 111.344 19.661 56.565 0.728 95.72-11.968 97.359-12.51l4.646-1.978c6.658-3.53 13.54-7.175 19.988-11.938 5.171-3.804 14.8-10.872 20.303-23.42 1.311-2.996 5.443-13.892 3.325-28.083-3.01-20.261-19.121-36.565-36.171-53.833-6.981-7.07-14.203-14.38-18.693-20.337-4.871-6.682-16.725-28.086-13.533-47.427 3.252-19.746 20.926-40.034 39.399-45.215 19.409-5.464 39.902 6.367 68.946 25.024 30.421 19.556 64.908 41.68 103.547 26.072 28.574-11.57 48.185-40.574 58.326-86.438 0.271-1.26 6.572-31.238 7.012-65.41 2.469-192.973-152.551-351.992-345.488-354.448z m279.844 407.134c-5.254 23.762-13.56 40.044-22.191 43.542-9.84 3.962-29.552-8.691-48.617-20.933-31.536-20.256-70.781-45.471-117.594-32.314-40.712 11.423-75.358 50.627-82.389 93.225-7.904 47.954 21.339 88.647 24.7 93.132l0.016 0.015c6.92 9.214 15.614 18.025 24.022 26.54 4.729 4.778 11.678 11.816 16.132 17.173-1.859 1.104-4.017 2.283-6.364 3.538-7.848 2.2-36.631 9.399-75.753 8.894-159.897-2.051-288.314-133.789-286.263-293.691 2.043-159.885 133.799-288.31 293.686-286.259 32.311 0.417 63.33 6.125 92.255 16.294 114.208 40.149 195.646 149.812 194.009 277.397-0.359 28.019-5.649 53.447-5.649 53.447z" p-id="757" fill="#FFFCFF"></path><path d="M693.577 472.734c-7.325 20.835 3.628 43.665 24.463 50.989 20.835 7.324 43.663-3.628 50.989-24.463 7.324-20.835-3.628-43.664-24.464-50.989-20.835-7.324-43.664 3.628-50.988 24.463zM375.507 325.559c-20.836-7.324-43.663 3.628-50.989 24.463s3.628 43.662 24.464 50.989c20.835 7.324 43.662-3.628 50.988-24.463 7.326-20.837-3.628-43.665-24.463-50.989zM473.237 256.316c-20.835-7.324-43.663 3.628-50.988 24.463-7.325 20.835 3.628 43.665 24.463 50.989 20.835 7.324 43.663-3.628 50.989-24.463 7.324-20.835-3.628-43.665-24.464-50.989zM696.634 334.307c-20.835-7.327-43.663 3.625-50.989 24.463-7.324 20.835 3.628 43.662 24.463 50.989 20.836 7.324 43.665-3.628 50.989-24.463 7.324-20.838-3.628-43.665-24.463-50.989zM596.568 261.443c-20.835-7.324-43.663 3.628-50.989 24.463-7.324 20.835 3.628 43.665 24.464 50.989 20.835 7.324 43.663-3.628 50.987-24.463 7.326-20.835-3.627-43.665-24.462-50.989z" p-id="758" fill="#FFFCFF"></path></svg>