<?xml version="1.0" encoding="UTF-8"?>
<svg width="892px" height="918px" viewBox="0 0 892 918" version="1.1" xmlns="http://www.w3.org/2000/svg" xmlns:xlink="http://www.w3.org/1999/xlink">
    <!-- Generator: Sketch 60.1 (88133) - https://sketch.com -->
    <title>午后居家闲适喝咖啡喂水果情侣</title>
    <desc>Created with Sketch.</desc>
    <defs>
        <path d="M55.8692158,27.9710811 C55.8692158,27.9710811 50.5792806,35.9048649 50.8712158,40.4682883 L50.8712158,40.4682883 C51.1640072,45.0325676 51.9011223,68.299009 43.9657914,70.9436036 L43.9657914,70.9436036 C36.0296043,73.5873423 2.30209353,80.1988288 2.30209353,80.1988288 L2.30209353,80.1988288 L0.31847482,94.7432432 L51.2402014,113.916126 C51.2402014,113.916126 120.017065,99.3708559 121.339763,99.3708559 L121.339763,99.3708559 C122.661604,99.3708559 152.421022,80.8595495 152.421022,80.8595495 L152.421022,80.8595495 C152.421022,80.8595495 126.629698,70.9436036 110.75818,66.3151351 L110.75818,66.3151351 C100.177453,55.0768919 98.8547554,6.15445946 98.8547554,6.15445946 L98.8547554,6.15445946 C98.8547554,6.15445946 87.6122518,2.18756757 86.9513309,0.864414414 L86.9513309,0.864414414 C86.936777,0.834459459 86.9059568,0.81990991 86.8605827,0.81990991 L86.8605827,0.81990991 C84.9206259,0.822477477 55.8692158,27.9710811 55.8692158,27.9710811" id="path-1"></path>
        <linearGradient x1="50.2816856%" y1="69.664269%" x2="47.8306402%" y2="27.9879024%" id="linearGradient-3">
            <stop stop-color="#FDDDCC" offset="0%"></stop>
            <stop stop-color="#DF7E52" offset="100%"></stop>
        </linearGradient>
        <polygon id="path-4" points="0.0370160568 0.643603604 161.17432 0.643603604 161.17432 161.941008 0.0370160568 161.941008"></polygon>
        <polygon id="path-6" points="0 0.333895755 322.061857 0.333895755 322.061857 403.580533 0 403.580533"></polygon>
        <path d="M85.191499,1.3386012 C87.0832952,7.03043968 83.2988482,56.3565663 78.8812391,61.4155025 L78.8812391,61.4155025 C74.4653389,66.4744387 17.049237,86.7110399 17.049237,86.7110399 L17.049237,86.7110399 L0.0145259875,132.875224 L205.069347,129.713282 C205.069347,129.713282 191.188484,94.2998724 182.987283,82.9170518 L182.987283,82.9170518 C174.784372,71.5333749 139.452044,65.8423928 128.095285,61.4155025 L128.095285,61.4155025 C116.737672,56.9886122 121.785879,22.2072483 121.785879,22.2072483 L121.785879,22.2072483 C121.785879,22.2072483 90.3858212,0.537838485 85.7050353,0.539551346 L85.7050353,0.539551346 C85.2034615,0.539551346 85.0077879,0.787916251 85.191499,1.3386012" id="path-8"></path>
        <linearGradient x1="49.8751405%" y1="67.3840099%" x2="48.479786%" y2="34.4870967%" id="linearGradient-10">
            <stop stop-color="#FDDDCC" offset="0%"></stop>
            <stop stop-color="#DF7E52" offset="100%"></stop>
        </linearGradient>
        <polygon id="path-11" points="0.11167921 0.0839302094 75.8957578 0.0839302094 75.8957578 81.4066506 0.11167921 81.4066506"></polygon>
        <polygon id="path-13" points="0 0.379989773 409.452244 0.379989773 409.452244 327.048877 0 327.048877"></polygon>
    </defs>
    <g id="页面-1" stroke="none" stroke-width="1" fill="none" fill-rule="evenodd">
        <g id="画板" transform="translate(-3234.000000, -6757.000000)">
            <g id="午后居家闲适喝咖啡喂水果情侣" transform="translate(3234.000000, 6757.000000)">
                <g id="编组备份-5" transform="translate(416.000000, 0.000000)">
                    <g id="编组" transform="translate(91.604317, 147.419459)">
                        <mask id="mask-2" fill="white">
                            <use xlink:href="#path-1"></use>
                        </mask>
                        <g id="Clip-2"></g>
                        <path d="M55.8692158,27.9710811 C55.8692158,27.9710811 50.5792806,35.9048649 50.8712158,40.4682883 L50.8712158,40.4682883 C51.1640072,45.0325676 51.9011223,68.299009 43.9657914,70.9436036 L43.9657914,70.9436036 C36.0296043,73.5873423 2.30209353,80.1988288 2.30209353,80.1988288 L2.30209353,80.1988288 L0.31847482,94.7432432 L51.2402014,113.916126 C51.2402014,113.916126 120.017065,99.3708559 121.339763,99.3708559 L121.339763,99.3708559 C122.661604,99.3708559 152.421022,80.8595495 152.421022,80.8595495 L152.421022,80.8595495 C152.421022,80.8595495 126.629698,70.9436036 110.75818,66.3151351 L110.75818,66.3151351 C100.177453,55.0768919 98.8547554,6.15445946 98.8547554,6.15445946 L98.8547554,6.15445946 C98.8547554,6.15445946 87.6122518,2.18756757 86.9513309,0.864414414 L86.9513309,0.864414414 C86.936777,0.834459459 86.9059568,0.81990991 86.8605827,0.81990991 L86.8605827,0.81990991 C84.9206259,0.822477477 55.8692158,27.9710811 55.8692158,27.9710811" id="Fill-1" fill="url(#linearGradient-3)" mask="url(#mask-2)"></path>
                    </g>
                    <g id="编组" transform="translate(0.000000, 0.212252)">
                        <path d="M197.80394,108.257806 C198.849257,117.714158 194.779286,129.385464 193.424055,138.910284 C191.617653,151.597491 188.417494,164.557716 179.657724,169.562761 C164.789573,178.055419 143.990257,187.077851 137.732912,187.077851 C117.082559,187.077851 95.0718396,160.029383 90.5164511,118.821635 C85.9602065,77.6147432 107.32884,41.4402838 138.243156,38.0237072 C169.158329,34.6079865 193.247696,67.0509144 197.80394,108.257806" id="Fill-3" fill="#FEDDCC"></path>
                        <path d="M149.799597,104.187527 C150.003353,108.155275 148.176403,111.474284 145.719353,111.600095 C143.262302,111.725905 141.105748,108.611446 140.901993,104.643698 C140.698237,100.67595 142.524331,97.3569414 144.982237,97.2311306 C147.439288,97.1053198 149.595842,100.219779 149.799597,104.187527" id="Fill-5" fill="#282727"></path>
                        <path d="M107.057794,106.379802 C107.261549,110.34755 105.741088,113.651153 103.662441,113.757279 C101.582937,113.864261 99.7328727,110.733541 99.5291173,106.765793 C99.3253619,102.798045 100.845822,99.4952973 102.92447,99.3883153 C105.003973,99.2821892 106.854038,102.412054 107.057794,106.379802" id="Fill-7" fill="#282727"></path>
                        <path d="M117.70992,132.726212 C117.616604,132.726212 117.521575,132.715941 117.426546,132.695401 C116.712546,132.539635 116.260517,131.835266 116.41633,131.121482 C116.555877,130.481302 117.893129,124.841212 121.749927,124.119725 C124.501481,123.6045 127.386589,125.700491 130.581611,130.523239 C130.984841,131.131752 130.818755,131.952518 130.209201,132.355626 C129.599647,132.758734 128.779488,132.591842 128.376258,131.983329 C125.973143,128.357068 123.736114,126.438239 122.237057,126.718959 C120.541093,127.036482 119.324553,130.202293 119.000942,131.685491 C118.865676,132.303419 118.317762,132.726212 117.70992,132.726212" id="Fill-9" fill="#CB4D4B"></path>
                        <path d="M117.369186,155.952171 C116.706553,154.776225 117.81351,153.397441 119.104532,153.794559 C121.902316,154.652982 125.790791,155.581586 128.324891,155.086045 C130.912071,154.580234 135.614712,151.965595 138.992942,149.933793 C140.257424,149.173793 141.734222,150.50636 141.112683,151.843207 C138.76864,156.882486 134.969201,162.681766 130.02428,163.767847 C124.90728,164.892441 119.755179,160.18609 117.369186,155.952171" id="Fill-11" fill="#CB4D4B"></path>
                        <g transform="translate(72.769784, 0.000000)">
                            <mask id="mask-5" fill="white">
                                <use xlink:href="#path-4"></use>
                            </mask>
                            <g id="Clip-14"></g>
                            <path d="M44.9384237,55.7112523 C44.9384237,55.7112523 33.6753734,87.6141351 19.2832223,91.9935495 C4.89107122,96.3721081 -3.86955468,60.0898108 1.7619705,48.2045405 C6.91492734,37.330036 17.7370784,35.6431441 19.9090424,23.8075135 C21.7214381,13.9292252 42.1209489,13.5235495 56.2023302,5.66679279 C72.2425029,-3.28374775 111.267654,-0.589513514 123.156524,16.3008018 C128.233287,23.5122432 141.301884,30.4703514 145.683481,36.3184144 C156.337834,50.5384595 166.332978,68.2221532 158.198172,78.2305315 C153.923589,83.4914775 150.064222,104.50445 142.554381,120.143505 C134.054014,137.846883 132.483042,152.310847 129.41387,157.051432 C122.530704,167.685441 115.022575,158.928324 115.647539,150.170351 C116.273359,141.412378 103.758668,96.3721081 96.2496827,91.9935495 C88.7406971,87.6141351 59.956395,92.6191802 44.9384237,55.7112523" id="Fill-13" fill="#5B423E" mask="url(#mask-5)"></path>
                        </g>
                        <path d="M179.245676,104.053329 C179.245676,104.053329 180.995576,95.9304009 190.908532,99.3187342 C205.511288,104.310086 193.497424,126.255941 190.34264,130.014005 C187.187856,133.772923 181.293504,130.109005 181.293504,130.109005 L179.245676,104.053329 Z" id="Fill-15" fill="#FEDDCC"></path>
                        <path d="M167.767998,87.6144775 C167.767998,87.6144775 177.780264,118.266955 175.276983,127.024928 C174.651163,128.900964 176.528624,129.526595 177.154444,126.399297 C177.780264,123.271144 180.908509,108.883351 179.657724,102.00227 C178.406084,95.1211892 177.154444,93.8699279 177.154444,93.8699279 L173.400379,89.4913694 L169.019638,88.2401081 L167.767998,87.6144775 Z" id="Fill-17" fill="#5B423E"></path>
                        <g transform="translate(0.000000, 214.819820)">
                            <mask id="mask-7" fill="white">
                                <use xlink:href="#path-6"></use>
                            </mask>
                            <g id="Clip-20"></g>
                            <path d="M127.633835,4.65286036 C127.633835,4.65286036 134.247324,18.5365541 154.086936,18.5365541 C173.926547,18.5365541 200.572274,10.7602477 210.064878,1.09506757 C212.515936,-1.04542793 218.895706,2.00826577 218.895706,2.00826577 C218.895706,2.00826577 250.638742,10.6027703 253.945058,12.5866441 C257.251375,14.5696622 283.704476,20.5195721 294.946979,42.3361937 C306.188627,64.1528153 320.739159,126.298221 322.061857,135.554302 C316.771065,142.826509 293.624281,152.743311 283.042699,153.404032 C283.704476,162.660113 310.818497,312.072005 310.818497,337.194797 C271.800195,350.416914 107.133303,387.439527 91.9227058,400.661644 C76.7129647,413.883761 31.7429504,378.845023 35.7110439,362.316734 C39.6791374,345.789302 74.7284899,188.443626 74.7284899,188.443626 C74.7284899,188.443626 10.580641,191.748941 -8.56115108e-05,187.121329 C2.64531007,160.015518 15.2105115,56.8806081 48.2762453,35.7255631 C81.3419791,14.5696622 129.617454,-0.636328829 127.633835,4.65286036" id="Fill-19" fill="#9C352A" mask="url(#mask-7)"></path>
                        </g>
                        <path d="M78.7011209,399.967631 C78.0812935,399.967631 77.5256748,399.524297 77.3998259,398.894387 C77.2354518,398.07191 77.4340705,395.734568 78.0316388,389.095694 C79.9116676,368.24191 84.3112432,319.406775 75.4513079,291.270514 C75.2321424,290.573847 75.6182504,289.830964 76.3151281,289.611865 C77.0120058,289.39191 77.7551137,289.779613 77.9742791,290.476279 C86.9934518,319.117495 82.5596317,368.321505 80.665905,389.332766 C80.2601065,393.843126 79.9090993,397.738126 79.9972791,398.397135 C80.1411065,399.112631 79.6745237,399.799027 78.9579554,399.941955 C78.8714878,399.959928 78.7858763,399.967631 78.7011209,399.967631" id="Fill-21" fill="#5B1D12"></path>
                        <path d="M270.476299,366.240662 C269.811953,366.240662 269.240068,365.741698 269.163874,365.065572 C268.783759,361.676383 259.972622,281.829311 269.266608,260.592959 C269.559399,259.92368 270.33932,259.61814 271.008802,259.911698 C271.677428,260.204401 271.983061,260.984086 271.69027,261.653365 C262.678802,282.245257 271.701399,363.947824 271.792147,364.771158 C271.874335,365.496923 271.351248,366.150797 270.626119,366.232104 C270.575608,366.238095 270.526809,366.240662 270.476299,366.240662" id="Fill-23" fill="#5B1D12"></path>
                        <path d="M316.770894,355.001734 L314.124642,409.874077 C314.124642,409.874077 315.729002,451.217905 258.573901,429.70768 C202.363096,408.551779 167.312887,381.445968 167.312887,381.445968 L160.038477,355.662455 L276.429894,399.957275 L279.736211,368.223851 L316.770894,355.001734 Z" id="Fill-25" fill="#F7CAB7"></path>
                        <path d="M177.894213,471.357563 L231.460479,373.512698 C231.460479,373.512698 283.704047,363.595896 308.701753,408.894635 C312.140767,404.585401 343.223738,372.851977 354.466242,372.190401 C353.505681,374.450716 352.481767,378.801887 352.481767,378.801887 C352.481767,378.801887 326.663904,429.509635 303.543659,479.291347 C293.623853,483.257383 272.461544,501.769545 272.461544,504.41414 L265.187134,504.41414 C265.187134,504.41414 206.450788,463.271437 181.862306,470.696842 C181.754436,470.729365 177.894213,477.307473 177.894213,477.307473 L177.894213,471.357563 Z" id="Fill-27" fill="#E6F5FF"></path>
                        <path d="M176.571601,479.291005 L233.44504,383.430014 C233.44504,383.430014 286.349529,368.885599 302.882824,414.50186 L314.124471,415.163437 C314.124471,415.163437 343.223824,378.801545 354.465471,378.140824 C345.207442,399.957446 329.335924,429.706995 303.543745,485.240914 C293.623939,489.208662 272.461629,507.719968 272.461629,510.364563 L265.187219,510.364563 C265.187219,510.364563 197.072133,463.424293 176.571601,479.291005" id="Fill-29" fill="#6C98BC"></path>
                        <path d="M233.444697,383.429671 L176.571258,479.290662 C197.072647,463.42395 265.187733,510.364221 265.187733,510.364221 L302.784028,414.244761 C286.143719,368.946023 233.444697,383.429671 233.444697,383.429671" id="Fill-31" fill="#77A0C9"></path>
                        <path d="M314.124814,415.16318 L302.88231,414.502459 C302.687972,413.964982 265.020619,510.248766 265.020619,510.248766 C265.125922,510.321514 265.187562,510.364306 265.187562,510.364306 L272.461972,510.364306 C272.461972,510.066468 272.742778,509.558946 273.231619,508.90336 C279.595979,494.038856 305.429253,435.209036 314.368806,414.861063 C314.212137,415.055342 314.124814,415.16318 314.124814,415.16318" id="Fill-33" fill="#46708E"></path>
                        <path d="M21.1620525,402.602041 C21.1620525,402.602041 21.1620525,481.274023 23.8074482,495.158572 C26.4528439,509.042266 36.3726496,520.942086 52.9050885,515.652896 C69.4383835,510.364563 206.331189,462.101995 206.331189,462.101995 L192.44329,435.657761 L73.4056209,454.829788 L72.7447,403.262761 L21.1620525,402.602041 Z" id="Fill-35" fill="#FEDDCC"></path>
                        <path d="M191.513035,435.964928 C191.513035,435.964928 225.50851,421.773982 242.702726,427.063171 C259.896942,432.351505 274.445762,444.25218 289.656359,444.25218 C304.8661,444.25218 312.14051,436.318396 313.463208,437.640694 C314.785906,438.962991 314.124985,443.590604 310.156891,445.574477 C311.479589,446.235198 314.124985,448.218216 310.817812,451.524387 C311.479589,453.507405 313.463208,455.490423 308.834194,458.135018 C309.495971,460.779613 310.156891,463.424207 306.850575,464.084928 C303.543402,464.746505 290.979057,476.646324 261.88056,469.374117 C232.783776,462.10191 208.976071,461.441189 205.007978,462.10191 C201.039884,462.763486 191.513035,435.964928 191.513035,435.964928" id="Fill-37" fill="#FEDDCC"></path>
                        <path d="M227.955629,426.17445 C227.955629,426.17445 239.396752,420.452198 248.654781,421.774495 C257.912809,423.096793 272.461629,429.707423 277.752421,428.385126 C283.043212,427.063685 283.704133,431.690441 281.720514,433.674315 C279.73604,435.657333 277.0915,437.640351 269.155313,437.640351 C261.219126,437.640351 252.622018,434.996613 252.622018,434.996613 L227.955629,426.17445 Z" id="Fill-39" fill="#FEDDCC"></path>
                        <path d="M309.495628,445.574135 C309.495628,445.574135 293.62411,455.490937 276.429894,449.541027" id="Stroke-41" stroke="#F2A98F" stroke-width="2" stroke-linecap="round"></path>
                        <path d="M310.156891,451.524131 C310.156891,451.524131 296.930769,461.440932 279.736553,456.81332" id="Stroke-43" stroke="#F2A98F" stroke-width="2" stroke-linecap="round"></path>
                        <path d="M308.17293,458.796423 C308.17293,458.796423 294.946808,467.390928 283.704304,463.424036" id="Stroke-45" stroke="#F2A98F" stroke-width="2" stroke-linecap="round"></path>
                        <path d="M258.574329,752.332387 C261.219725,792.660315 266.510517,825.716036 268.494135,833.64982 C270.287696,840.821036 274.445847,854.144144 303.543488,854.144144 C332.64284,854.144144 343.223567,825.716036 337.932776,811.171622 C332.64284,796.627207 316.109545,782.743514 312.140596,768.860676 C308.173358,754.976982 306.85066,743.077162 304.205265,739.11027 C301.559869,735.143378 259.897027,746.382477 258.574329,752.332387" id="Fill-47" fill="#E0E0E0"></path>
                        <path d="M334.626373,710.021014 C334.626373,710.021014 326.518107,730.293671 322.940402,735.229392 C319.360985,740.164257 324.361553,758.115833 342.173028,759.530563 C359.756776,760.926464 379.384927,784.061104 389.92028,792.711239 C411.965244,810.814302 416.607956,794.516239 416.607956,794.516239 C416.607956,794.516239 426.319726,781.466149 421.088863,776.241149 C408.808747,763.975878 384.830676,737.481149 382.261474,730.393806 C379.693129,723.306464 379.936265,710.021014 379.936265,710.021014 L334.626373,710.021014 Z" id="Fill-49" fill="#827875"></path>
                        <path d="M333.47935,707.291347 C333.47935,707.291347 327.840976,727.64959 324.262415,732.585311 C320.683854,737.51932 325.688703,755.416977 343.495897,756.885626 C360.417868,758.282383 380.707796,781.416167 391.243149,790.067158 C413.288113,808.169365 417.930825,791.871302 417.930825,791.871302 C417.930825,791.871302 427.641739,778.821212 422.411732,773.597068 C410.131617,761.331797 386.152688,734.837068 383.583487,727.748869 C381.015142,720.662383 381.259135,707.376932 381.259135,707.376932 L333.47935,707.291347 Z" id="Fill-51" fill="#E0E0E0"></path>
                        <path d="M235.759376,611.183869 C237.082073,611.183869 339.585591,593.99486 374.6358,574.822833 C349.505397,631.678194 329.004865,707.706437 329.004865,707.706437 L385.878304,713.656347 L475.155699,539.783239 C475.155699,539.783239 483.09103,480.944005 434.153778,484.250176 C385.216527,487.555491 250.308196,498.79459 250.308196,498.79459 L235.759376,611.183869 Z" id="Fill-53" fill="#473B34"></path>
                        <path d="M36.8563547,584.089014 C36.8563547,584.089014 20.4668871,707.717392 101.84234,705.392887 C171.280981,703.409869 228.154419,609.531896 228.154419,609.531896 L256.590283,756.299194 L306.850232,741.093203 L289.656017,475.324284 C289.656017,475.324284 285.027002,438.963248 257.25206,441.606986 C192.735225,447.75032 36.8563547,584.089014 36.8563547,584.089014" id="Fill-55" fill="#594B42"></path>
                        <polygon id="Fill-57" fill="#91877A" points="256.590368 756.299108 306.850318 741.093117 305.788735 724.673523 253.043483 737.994063"></polygon>
                        <path d="M333.389886,692.219383 C330.580973,701.865734 329.004865,707.70695 329.004865,707.70695 L385.878304,713.65686 L392.853929,700.071005 L333.389886,692.219383 Z" id="Fill-59" fill="#91877A"></path>
                        <path d="M136.892635,504.414225 C136.892635,504.414225 74.0674835,565.898054 66.7930734,584.40936 C59.5186633,602.920667 27.1138504,603.581387 37.0336561,571.847964 L38.1466058,566.973009 L103.165124,516.314045 L136.892635,504.414225 Z" id="Fill-61" fill="#9C352A"></path>
                        <path d="M228.153392,608.870405 C227.299845,608.870405 226.512219,608.316667 226.254529,607.457387 C225.603025,605.286081 210.299112,553.916757 210.299112,521.603063 C210.299112,520.507568 211.186903,519.620045 212.28273,519.620045 C213.378558,519.620045 214.266349,520.507568 214.266349,521.603063 C214.266349,553.339054 229.896442,605.79018 230.053968,606.317387 C230.369018,607.365811 229.774018,608.471577 228.724421,608.786532 C228.533507,608.843874 228.341737,608.870405 228.153392,608.870405" id="Fill-63" fill="#3F332D"></path>
                        <path d="M111.100968,343.471045 C111.100968,349.53564 106.831522,355.001991 96.8209683,355.001991 C86.8112705,355.001991 78.6961554,350.085099 78.6961554,344.020505 C78.6961554,337.95591 86.8112705,333.039018 96.8209683,333.039018 C106.831522,333.039018 111.100968,337.40645 111.100968,343.471045" id="Fill-65" fill="#E25A4B"></path>
                        <path d="M181.200786,363.596239 C181.200786,363.596239 151.441369,352.35714 144.828736,336.490428 C138.215247,320.623716 144.828736,302.11241 119.698333,290.873311 C116.39116,290.211734 117.052937,296.823221 118.375635,297.483941 C119.698333,298.145518 134.247153,310.706914 128.295441,315.996104 C124.327347,310.706914 109.778527,293.517905 97.2133259,297.483941 C93.2452324,299.467815 94.5679302,305.417725 99.1969446,306.740023 C95.8906281,306.740023 87.2935201,302.745743 87.2935201,310.706914 C87.2935201,313.351509 95.2297072,313.351509 98.5360237,315.996104 C101.84234,318.640698 109.778527,321.946014 110.439448,325.912905 C105.149513,322.606734 95.8906281,323.268311 90.5998367,328.5575 C87.9552971,331.201239 85.3099014,334.50741 87.9552971,334.50741 C96.552405,333.845833 99.9229302,329.891779 103.165038,330.540518 C106.471355,331.201239 121.681952,340.45732 122.342873,347.06795 C123.332542,356.957365 101.181419,354.341014 101.181419,354.341014 L95.2297072,355.001734 C95.2297072,355.001734 97.2133259,366.240833 113.084844,366.240833 C128.956362,366.240833 141.521563,369.546149 141.521563,369.546149 L174.587297,386.074437 L181.200786,363.596239 Z" id="Fill-67" fill="#F7CAB7"></path>
                        <path d="M122.344157,322.977748 C122.227725,322.977748 122.113006,322.922973 122.041092,322.821126 C111.057991,307.320721 99.9687324,307.111036 99.8582935,307.111036 C99.653682,307.11018 99.4875957,306.944144 99.4884485,306.739595 C99.4884485,306.535045 99.6545381,306.369009 99.8582935,306.369009 C100.325732,306.369009 111.42184,306.551306 122.646365,322.392342 C122.765365,322.559234 122.725128,322.791171 122.558186,322.909279 C122.493121,322.955495 122.417783,322.977748 122.344157,322.977748" id="Fill-69" fill="#F2A98F"></path>
                        <path d="M130.791616,88.9204279 C130.551904,88.9204279 130.315616,88.807455 130.168364,88.5960586 C129.927796,88.2520045 130.011695,87.7795721 130.354997,87.5390766 C130.994515,87.0923198 146.112652,76.6911036 157.057227,84.5059234 C157.398817,84.7489865 157.47758,85.2239865 157.233587,85.5646171 C156.99045,85.9069595 156.516163,85.9865541 156.174573,85.7417793 C146.105803,78.5508784 131.372918,88.6790766 131.225666,88.7826351 C131.093824,88.8759234 130.942292,88.9204279 130.791616,88.9204279" id="Fill-71" fill="#282727"></path>
                        <path d="M114.079393,90.4390586 C113.927004,90.4390586 113.77376,90.3928423 113.638494,90.2978423 C113.53576,90.2250946 103.264091,83.0230676 94.6712633,87.3211757 C94.2954288,87.509464 93.8408317,87.3579775 93.6524863,86.9814009 C93.464141,86.606536 93.6165295,86.1503649 93.992364,85.9629324 C103.408774,81.2574369 114.072544,88.7418964 114.522004,89.0619865 C114.862738,89.3050495 114.942357,89.7791937 114.698364,90.1206802 C114.550256,90.3286532 114.316537,90.4390586 114.079393,90.4390586" id="Fill-73" fill="#282727"></path>
                    </g>
                </g>
                <g id="编组备份-6" transform="translate(0.000000, 59.000000)">
                    <g id="编组" transform="translate(11.962578, 31.602293)">
                        <path d="M96.6581426,47.0225849 C96.6581426,47.0225849 90.2855064,113.202411 81.4519971,127.747174 C72.6184877,142.291937 8.26323617,144.821833 0.691778794,215.016607 C0.691778794,284.579335 53.0596728,289.638271 53.0596728,289.638271 L289.662375,237.150202 C289.662375,237.150202 319.947351,188.456978 263.162702,81.5829897 C252.437396,57.5524005 246.127136,33.5218113 245.495683,23.4030825 C244.865084,13.2852101 221.520968,0.637441376 221.520968,0.637441376 L186.819238,2.53443539 L96.6581426,47.0225849 Z" id="Fill-1" fill="#5B423E"></path>
                        <path d="M225.305928,135.968395 C225.305928,135.968395 255.590903,179.602683 236.663541,204.898221 C217.735325,230.193758 128.141597,209.958013 128.141597,209.958013 L110.639491,204.759479 C110.639491,204.759479 142.653059,144.189273 145.177163,103.716071 C147.700412,63.2437251 225.305928,135.968395 225.305928,135.968395" id="Fill-3" fill="#442F2A"></path>
                    </g>
                    <g id="编组" transform="translate(96.555094, 149.789731)">
                        <mask id="mask-9" fill="white">
                            <use xlink:href="#path-8"></use>
                        </mask>
                        <g id="Clip-6"></g>
                        <path d="M85.191499,1.3386012 C87.0832952,7.03043968 83.2988482,56.3565663 78.8812391,61.4155025 L78.8812391,61.4155025 C74.4653389,66.4744387 17.049237,86.7110399 17.049237,86.7110399 L17.049237,86.7110399 L0.0145259875,132.875224 L205.069347,129.713282 C205.069347,129.713282 191.188484,94.2998724 182.987283,82.9170518 L182.987283,82.9170518 C174.784372,71.5333749 139.452044,65.8423928 128.095285,61.4155025 L128.095285,61.4155025 C116.737672,56.9886122 121.785879,22.2072483 121.785879,22.2072483 L121.785879,22.2072483 C121.785879,22.2072483 90.3858212,0.537838485 85.7050353,0.539551346 L85.7050353,0.539551346 C85.2034615,0.539551346 85.0077879,0.787916251 85.191499,1.3386012" id="Fill-5" fill="url(#linearGradient-10)" mask="url(#mask-9)"></path>
                    </g>
                    <g id="编组" transform="translate(0.000000, 0.770788)">
                        <path d="M199.096859,16.6075617 C199.096859,16.6075617 245.274119,26.0805418 258.405612,83.0083474 C268.936953,128.666381 253.980312,175.061802 227.166194,177.274819 C178.898901,183.28268 157.455125,134.231468 157.455125,134.231468 C157.455125,134.231468 147.359564,83.0083474 154.300423,67.1986365 C161.240427,51.3889256 177.645394,14.7105677 199.096859,16.6075617" id="Fill-7" fill="#FEDDCC"></path>
                        <g transform="translate(185.419958, 0.000000)">
                            <mask id="mask-12" fill="white">
                                <use xlink:href="#path-11"></use>
                            </mask>
                            <g id="Clip-10"></g>
                            <path d="M30.3966543,36.5279687 C30.3966543,36.5279687 48.6942717,63.0884542 60.6816293,67.5153446 C72.6698414,71.9422349 72.6903486,81.4066506 72.6903486,81.4066506 C72.6903486,81.4066506 76.4551428,69.4123386 75.8245441,64.3534024 C75.1939453,59.2944662 73.3012946,23.8802 40.4913611,8.702535 C7.68313659,-6.47427358 0.11167921,3.01155294 0.11167921,3.01155294 L30.3966543,36.5279687 Z" id="Fill-9" fill="#5B423E" mask="url(#mask-12)"></path>
                        </g>
                        <path d="M220.233282,32.7338094 C220.233282,32.7338094 212.662679,67.5151733 186.162151,83.3248841 C159.663332,99.134595 165.341284,121.900236 169.758039,130.754017 C172.282143,135.180907 166.603336,132.018965 164.710685,128.22412 C162.818035,124.430132 157.139228,107.987519 156.508629,106.090525 C155.87803,104.193531 147.044521,102.296537 148.937172,113.679358 C150.829822,125.062178 114.866041,171.226363 108.55749,149.72567 C102.24723,128.22412 103.509282,46.0136239 132.533059,24.5120746 C161.555983,3.01138166 178.591548,-2.68045683 187.425057,1.7464335 C196.257712,6.17332383 220.233282,32.7338094 220.233282,32.7338094" id="Fill-11" fill="#5B423E"></path>
                        <path d="M156.261944,107.281306 C156.261944,107.281306 152.124601,101.475563 143.84906,108.111188 C135.574374,114.745957 140.538844,128.01635 142.193952,131.334163 C143.84906,134.651975 153.779709,142.946507 162.054395,141.287601 C170.329081,139.628694 156.261944,107.281306 156.261944,107.281306" id="Fill-13" fill="#FEDDCC"></path>
                        <path d="M145.003705,123.437272 C144.896042,123.437272 144.790088,123.387599 144.720021,123.295105 C142.519761,120.354122 143.763015,115.226671 147.613256,111.367594 C148.584788,110.392976 149.660566,109.951058 150.823499,110.057255 C153.39289,110.291061 155.389786,113.14897 155.473524,113.270583 C155.584605,113.431592 155.544445,113.652551 155.383805,113.763887 C155.223165,113.875223 155.002711,113.834971 154.89163,113.673962 C154.872832,113.646556 152.996416,110.965928 150.756851,110.763811 C149.817788,110.678168 148.929994,111.051571 148.113121,111.869463 C144.570489,115.421081 143.328944,120.252206 145.286535,122.869459 C145.404452,123.026186 145.372836,123.248858 145.215614,123.366189 C145.152383,123.414149 145.078044,123.437272 145.003705,123.437272" id="Fill-15" fill="#CB4D4B"></path>
                        <path d="M152.866622,121.287374 C152.687184,121.287374 152.533379,121.151202 152.514581,120.968782 C152.511163,120.935381 152.158267,117.681801 149.982786,115.920123 C148.862577,115.014019 147.441593,114.650036 145.757433,114.836738 C145.566886,114.860718 145.388302,114.718551 145.36694,114.524141 C145.344724,114.328875 145.484857,114.153306 145.678822,114.131896 C147.561219,113.921214 149.158223,114.339152 150.430529,115.371151 C152.836716,117.322957 153.204992,120.752105 153.219518,120.897698 C153.239171,121.092108 153.097329,121.265964 152.90251,121.285661 C152.890547,121.287374 152.878585,121.287374 152.866622,121.287374" id="Fill-17" fill="#CB4D4B"></path>
                        <path d="M409.172973,477.702661 C409.172973,477.702661 367.873027,596.823608 379.23064,622.119145 C386.801243,639.192948 410.147068,651.841573 410.147068,655.635561 C410.147068,658.791508 400.051507,651.841573 400.051507,651.841573 L357.779174,644.884786 L346.421561,636.663908 L336.326,608.838474 L343.266858,588.601873 L349.576264,578.484857 L401.944158,479.199702 L409.172973,477.702661 Z" id="Fill-19" fill="#45536A"></path>
                        <path d="M4.45212973,730.890042 C4.45212973,730.890042 6.97623368,763.773555 40.4159114,734.68403 C73.8555892,705.594504 185.531381,650.576539 207.615155,653.738481 C229.697219,656.899567 309.826839,674.607129 346.421219,667.018296 C383.0156,659.43032 415.19408,663.856354 409.515273,653.738481 C403.836467,643.620609 370.396789,649.943637 354.62413,640.45781 C338.850616,630.97284 333.17181,601.250413 352.731479,579.116817 C372.28944,556.982366 234.745427,539.908563 234.745427,539.908563 L160.925213,610.104193 L32.2130008,683.460909 L4.45212973,730.890042 Z" id="Fill-21" fill="#273549"></path>
                        <path d="M348.80519,567.080112 C348.80519,567.080112 280.803916,664.488828 252.410737,697.373198 C224.019267,730.256711 225.911918,727.095626 225.911918,727.095626 L194.996344,701.167186 L285.851269,545.599973 L348.80519,567.080112 Z" id="Fill-23" fill="#F7CAB7"></path>
                        <polygon id="Fill-25" fill="#FEDDCC" points="287.11315 555.085886 165.341797 701.167271 111.711851 699.90318 232.221152 521.56947"></polygon>
                        <path d="M72.5936227,499.435446 C72.5936227,499.435446 54.2960052,601.250498 131.902375,619.589249 C163.431458,627.040196 182.715134,565.756584 217.079348,550.659424 C267.296542,528.595199 328.124542,547.497481 328.124542,547.497481 L254.934926,422.916788 L72.5936227,499.435446 Z" id="Fill-27" fill="#45536A"></path>
                        <path d="M150.561861,221.998316 C150.561861,221.998316 157.770168,251.540036 198.781304,250.907134 C239.792439,250.275088 239.917191,214.866817 239.917191,214.866817 C239.917191,214.866817 237.899788,212.331782 247.995349,214.861679 C258.089202,217.390718 277.018272,224.347505 278.910069,226.244499 C280.803574,228.141493 301.625295,249.642186 309.826497,266.084799 C318.029407,282.526556 325.60001,302.763157 325.60001,302.763157 L283.326823,324.896752 L316.136757,443.785607 C316.136757,443.785607 229.697732,407.739295 147.675462,499.435618 C65.6531913,591.131941 68.1764407,499.435618 68.1764407,499.435618 L109.819029,365.369955 L65.6531913,374.222879 C65.6531913,374.222879 53.0343805,278.732568 99.092869,240.789262 C122.43784,220.552661 155.246919,218.022764 150.561861,221.998316" id="Fill-29" fill="#C7594F"></path>
                        <path d="M130.640409,357.225727 L130.63101,357.225727 C130.240517,357.220588 129.927781,356.899427 129.932053,356.508038 C129.938035,355.983902 130.46097,303.721075 121.753068,270.057353 C121.654804,269.677954 121.882093,269.290848 122.259768,269.191502 C122.638299,269.093868 123.024519,269.321679 123.122783,269.701078 C131.878536,303.550645 131.353891,355.998462 131.34791,356.52431 C131.342783,356.91313 131.027484,357.225727 130.640409,357.225727" id="Fill-31" fill="#5B1D12"></path>
                        <path d="M278.279726,323.709482 C277.985789,323.709482 277.711504,323.52535 277.610676,323.230738 C277.48336,322.862472 264.991011,285.92376 269.373587,244.508483 C269.414601,244.118807 269.764934,243.835329 270.152009,243.87815 C270.540793,243.919259 270.822768,244.268683 270.782608,244.658359 C266.434211,285.749048 278.824023,322.403426 278.948776,322.768265 C279.076947,323.1391 278.880419,323.542478 278.511288,323.670943 C278.434385,323.696636 278.356628,323.709482 278.279726,323.709482" id="Fill-33" fill="#5B1D12"></path>
                        <g transform="translate(0.000000, 419.651047)">
                            <mask id="mask-14" fill="white">
                                <use xlink:href="#path-13"></use>
                            </mask>
                            <g id="Clip-36"></g>
                            <path d="M199.41233,55.1218501 C199.41233,55.1218501 283.957849,-14.4408777 331.909843,3.26582722 C350.838059,13.384556 366.611573,15.9135959 375.445082,16.5456418 C384.278591,17.1776876 422.134169,38.0471911 405.099458,70.2995152 C388.063038,102.550983 372.920978,142.390426 355.885413,165.156924 C354.531078,164.744124 341.314993,181.488201 342.005404,179.069641 C343.266602,174.643607 346.183762,161.732914 343.734851,160.84137 C316.572109,150.953021 258.028107,130.512589 226.542602,146.817317 C188.686169,166.421872 186.793519,208.792068 143.259134,228.395767 C99.723895,248.000323 -1.85719023,289.104715 12.6542713,327.048877 C0.666059252,315.6652 -31.0211008,285.310727 92.3985249,176.539744 C215.816442,67.7696188 199.41233,55.1218501 199.41233,55.1218501" id="Fill-35" fill="#45536A" mask="url(#mask-14)"></path>
                        </g>
                        <path d="M331.910185,422.917045 C309.476933,414.632791 277.828224,424.867995 251.780565,438.726756 C264.4327,448.012178 286.742054,454.441403 310.526222,453.978931 C335.5451,453.492478 357.329809,446.144303 369.298368,435.536552 C360.133324,434.238203 347.030883,431.000038 331.910185,422.917045" id="Fill-37" fill="#273549"></path>
                        <path d="M375.44474,436.196689 C370.646038,435.854116 363.794044,434.9463 355.503977,432.569705 C354.562352,434.229467 353.954823,435.389074 353.954823,435.647717 C353.954823,436.814175 344.064335,435.647717 346.391911,442.059813 C348.718632,448.471054 370.242728,458.963186 373.151343,458.963186 C376.060813,458.963186 378.969428,458.379957 384.787514,457.797584 C390.60389,457.214355 399.912485,456.631125 401.075418,452.551946 C401.080545,452.533961 401.083108,452.518545 401.088235,452.501416 C392.595659,442.385257 380.059732,436.527271 375.44474,436.196689" id="Fill-39" fill="#273549"></path>
                        <path d="M181.478887,507.415154 C181.32081,507.415154 181.161879,507.362055 181.03029,507.255001 C180.727808,507.00578 180.683376,506.558723 180.931172,506.255547 C217.478557,461.542156 251.785521,439.424833 252.127309,439.2073 C252.458843,438.996618 252.896332,439.095107 253.105677,439.424833 C253.315022,439.755415 253.217613,440.194764 252.887787,440.40459 C252.546854,440.622123 218.420182,462.628967 182.026602,507.154799 C181.887324,507.326085 181.683105,507.415154 181.478887,507.415154" id="Fill-41" fill="#273549"></path>
                        <path d="M133.794599,667.01821 C133.794599,667.01821 112.610582,698.527153 112.237179,698.981061 C110.122366,701.553779 102.752563,710.211437 98.4622703,711.285401 C93.4149168,712.550349 77.0099501,718.242187 90.8908129,756.818396 C104.771676,795.393748 100.986374,813.099596 97.8316715,822.585423 C94.6761143,832.072106 108.556977,842.189978 126.223141,845.984823 C143.889306,849.777954 158.401622,837.131042 157.770168,826.380267 C157.13957,815.629493 133.164,747.964615 143.889306,730.257054 C154.615466,712.550349 169.75838,696.108592 169.75838,696.108592 L133.794599,667.01821 Z" id="Fill-43" fill="#FFB1A9"></path>
                        <path d="M128.360256,675.098206 C127.380179,676.554138 126.322345,678.126545 125.231187,679.746912 L158.185526,709.878713 C159.978204,707.596326 161.6692,705.518625 163.179902,703.702992 L128.360256,675.098206 Z" id="Fill-45" fill="#FFE1CC"></path>
                        <path d="M207.841846,678.820853 C207.841846,678.820853 189.065725,711.827693 188.727355,712.309007 C186.809925,715.032456 180.105754,724.216819 175.907744,725.610232 C170.968908,727.24944 155.0339,734.153128 171.751602,771.582576 C188.469305,809.010311 186.014413,826.950821 183.575756,836.646473 C181.136245,846.342125 195.733153,855.392885 213.631733,857.853411 C231.532877,860.313936 245.060843,846.615327 243.630461,835.941631 C242.199224,825.268791 213.246367,759.588264 222.622465,741.127044 C231.998563,722.665823 245.873444,705.1364 245.873444,705.1364 L207.841846,678.820853 Z" id="Fill-47" fill="#FFB1A9"></path>
                        <path d="M203.024601,687.284787 C202.155605,688.81009 201.218252,690.457862 200.250992,692.155308 L235.359449,719.734946 C236.976106,717.32495 238.50817,715.125636 239.879595,713.202949 L203.024601,687.284787 Z" id="Fill-49" fill="#FFE1CC"></path>
                        <path d="M252.357674,91.745996 C252.981437,96.0838175 251.315221,99.9137757 248.636458,100.300882 C245.956841,100.687989 243.279786,97.4849382 242.656023,93.1471167 C242.03226,88.8101515 243.697622,84.9801934 246.37724,84.5922303 C249.056857,84.2051236 251.733911,87.4081745 252.357674,91.745996" id="Fill-51" fill="#282727"></path>
                        <path d="M206.69284,102.231791 C207.316603,106.574751 205.648678,110.409848 202.966497,110.796955 C200.284316,111.184918 197.603844,107.977585 196.979227,103.635481 C196.354609,99.2916644 198.022534,95.4574241 200.704715,95.0703174 C203.387751,94.6823543 206.068222,97.8888309 206.69284,102.231791" id="Fill-53" fill="#282727"></path>
                        <path d="M227.822598,125.731393 C227.765348,125.731393 227.705535,125.721972 227.648286,125.701418 C227.371438,125.604641 227.224469,125.301465 227.321024,125.023981 C227.44065,124.681409 230.288598,116.634386 234.529332,116.438264 C236.800512,116.336348 238.934124,118.457727 240.886587,122.751014 C241.008777,123.018221 240.89086,123.334244 240.623411,123.455857 C240.358525,123.578326 240.042371,123.460139 239.920182,123.192076 C238.190735,119.387811 236.348498,117.427441 234.578036,117.501951 C231.648059,117.637267 229.070124,123.230616 228.324172,125.374262 C228.247269,125.593508 228.042196,125.731393 227.822598,125.731393" id="Fill-55" fill="#CB4D4B"></path>
                        <path d="M245.001287,139.709028 C240.355534,143.560396 232.670432,147.681541 222.921786,144.724286 C221.126545,144.180452 219.941395,146.763447 221.139362,148.561095 C224.198364,153.148995 229.219229,158.63272 235.544869,158.161684 C241.95852,157.682939 245.852339,149.345586 247.947499,142.709104 C248.640474,140.516642 246.565821,138.411535 245.001287,139.709028" id="Fill-57" fill="#CB4D4B"></path>
                        <path d="M182.061294,91.1291946 C181.939105,91.1291946 181.816061,91.0872295 181.716942,91.0015864 C181.493926,90.8106024 181.467437,90.4748816 181.657984,90.2513531 C189.00557,81.6382295 197.397319,81.0438666 203.142774,82.0630191 C209.336826,83.1601069 213.731364,86.2381188 213.91593,86.3682963 C214.154327,86.5378696 214.210722,86.8693083 214.042391,87.1099653 C213.873206,87.3497659 213.541672,87.4071468 213.302421,87.2375735 C213.258843,87.206742 208.890793,84.1527101 202.921466,83.1035825 C194.974042,81.7084568 188.092996,84.3462634 182.465458,90.9433492 C182.360358,91.0658187 182.21168,91.1291946 182.061294,91.1291946" id="Fill-59" fill="#442F2A"></path>
                        <path d="M234.086716,82.9220191 C234.014086,82.9220191 233.939747,82.9066034 233.868826,82.8749155 C233.602232,82.7541587 233.482606,82.4389922 233.603941,82.1709294 C233.72613,81.897728 236.689431,75.4470919 242.989438,73.1458626 C246.654259,71.8072614 250.671976,72.1695316 254.932363,74.2215396 C255.196394,74.3491478 255.307475,74.6668835 255.181014,74.9315206 C255.053698,75.1961577 254.736689,75.3083501 254.470949,75.180742 C250.480575,73.2571986 246.739706,72.9094877 243.353442,74.1453172 C237.468708,76.2958148 234.600253,82.5460461 234.571201,82.6085655 C234.48319,82.8055446 234.289226,82.9220191 234.086716,82.9220191" id="Fill-61" fill="#442F2A"></path>
                        <polygon id="Fill-63" fill="#F7CAB7" points="319.003845 306.217057 336.325658 358.413082 302.886835 361.575025 289.01708 321.918001"></polygon>
                        <path d="M395.642442,401.008178 C395.642442,401.008178 398.91848,406.104797 398.91848,409.671831 C398.91848,413.238865 395.868022,413.748441 395.868022,415.786746 C395.868022,417.825907 401.968937,418.84506 401.968937,423.940823 C401.968937,428.018289 397.901661,428.018289 397.901661,431.075747 C397.901661,434.133204 399.934444,436.681086 399.934444,438.720247 C399.934444,440.758552 396.884842,440.24812 396.884842,442.287281 C396.884842,444.325586 398.91848,445.854315 397.901661,449.421349 C396.884842,452.989239 388.749434,453.498816 383.664484,454.007535 C378.580388,454.517968 376.038341,455.027544 373.496293,455.027544 C370.95339,455.027544 352.141382,445.854315 350.107744,440.24812 C348.074106,434.642781 356.717068,435.661933 356.717068,434.642781 C356.717068,433.623628 367.394523,416.805898 367.394523,415.27717 C367.394523,413.748441 364.344066,407.633526 364.344066,407.633526 C364.344066,407.633526 370.445835,401.008178 372.479474,400.498601 C374.512257,399.989025 392.816711,400.498601 392.816711,400.498601 L395.642442,401.008178 Z" id="Fill-65" fill="#F7CAB7"></path>
                        <path d="M366.377704,414.767936 C366.377704,414.767936 376.54675,418.844546 380.614027,418.33497 C384.682158,417.825394 387.223351,415.787088 387.223351,415.787088" id="Stroke-67" stroke="#ED9377" stroke-width="2" stroke-linecap="round"></path>
                        <path d="M365.361312,426.489132 C365.361312,426.489132 373.49672,429.54659 378.580816,430.056166 C383.664911,430.565742 388.240597,427.507428 388.240597,427.507428" id="Stroke-69" stroke="#ED9377" stroke-width="2" stroke-linecap="round"></path>
                        <path d="M357.734571,434.642781 C357.734571,434.642781 371.461629,440.758552 375.52976,440.758552 C379.597891,440.758552 388.749263,438.209815 388.749263,438.209815" id="Stroke-71" stroke="#ED9377" stroke-width="2" stroke-linecap="round"></path>
                        <path d="M371.658926,417.857938 C371.658926,435.669984 343.976666,450.109405 309.826924,450.109405 C275.678036,450.109405 247.994922,435.669984 247.994922,417.857938 C247.994922,400.045892 275.678036,385.605614 309.826924,385.605614 C343.976666,385.605614 371.658926,400.045892 371.658926,417.857938" id="Fill-73" fill="#F2F2F2"></path>
                        <path d="M352.260581,417.857938 C352.260581,430.081773 333.263152,439.991533 309.826753,439.991533 C286.391209,439.991533 267.39378,430.081773 267.39378,417.857938 C267.39378,405.634102 286.391209,395.724343 309.826753,395.724343 C333.263152,395.724343 352.260581,405.634102 352.260581,417.857938" id="Fill-75" fill="#D1C9CB"></path>
                        <path d="M343.897799,417.857938 C343.897799,424.144139 328.642948,429.240758 309.826668,429.240758 C291.009533,429.240758 275.756391,424.144139 275.756391,417.857938 C275.756391,411.57088 291.009533,406.474261 309.826668,406.474261 C328.642948,406.474261 343.897799,411.57088 343.897799,417.857938" id="Fill-77" fill="#5B423E"></path>
                        <path d="M348.945323,366.002001 C348.945323,375.082735 350.207375,421.652012 309.826839,421.652012 C269.447157,421.652012 270.708354,375.082735 270.708354,366.002001 C270.708354,356.921266 288.223277,349.560244 309.826839,349.560244 C331.431254,349.560244 348.945323,356.921266 348.945323,366.002001" id="Fill-79" fill="#FFFFFF"></path>
                        <path d="M270.944957,375.972224 C271.044075,377.503522 271.184209,379.135879 271.382446,380.842746 C279.279456,386.189443 293.373936,389.751338 309.449932,389.751338 C326.095859,389.751338 340.619283,385.932513 348.336001,380.267224 C348.500059,378.767614 348.620539,377.328811 348.709404,375.971368 C340.992687,381.636657 326.470972,385.454625 309.826753,385.454625 C293.182535,385.454625 278.661674,381.636657 270.944957,375.972224" id="Fill-81" fill="#969493"></path>
                        <path d="M271.693473,383.24315 C271.932724,384.908051 272.230934,386.623482 272.598356,388.363749 C280.678223,393.274523 294.168593,396.492989 309.449932,396.492989 C325.290949,396.492989 339.210263,393.034722 347.169649,387.817346 C347.485803,386.264637 347.745562,384.735052 347.960034,383.244006 C340.074132,388.61554 325.945473,392.196276 309.826753,392.196276 C293.708034,392.196276 279.579375,388.614683 271.693473,383.24315" id="Fill-83" fill="#969493"></path>
                        <path d="M346.421134,366.634303 C346.421134,375.12924 330.037529,382.015799 309.826753,382.015799 C289.616832,382.015799 273.232373,375.12924 273.232373,366.634303 C273.232373,358.139367 289.616832,351.253664 309.826753,351.253664 C330.037529,351.253664 346.421134,358.139367 346.421134,366.634303" id="Fill-85" fill="#5B423E"></path>
                        <path d="M345.790364,378.649855 C345.790364,378.649855 350.207119,368.531983 359.040628,368.531983 C367.873283,368.531983 361.563878,393.82752 352.099769,398.8856 C342.636516,403.945392 342.636516,397.621508 342.636516,397.621508 L345.790364,378.649855 Z" id="Stroke-87" stroke="#FFFFFF" stroke-width="6"></path>
                        <path d="M321.863499,366.634303 C321.863499,369.428837 316.474358,371.69324 309.826582,371.69324 C303.179661,371.69324 297.79052,369.428837 297.79052,366.634303 C297.79052,363.840626 303.179661,361.575367 309.826582,361.575367 C316.474358,361.575367 321.863499,363.840626 321.863499,366.634303" id="Fill-89" fill="#382220"></path>
                        <path d="M308.564958,378.094545 C289.547877,378.094545 280.655409,368.780005 280.285423,368.383477 C280.019683,368.096573 280.034209,367.647803 280.320457,367.380597 C280.605849,367.113391 281.054446,367.12795 281.321041,367.414854 C281.44323,367.544175 290.239143,376.67544 308.564958,376.67544 C308.95545,376.67544 309.272459,376.993175 309.272459,377.384564 C309.272459,377.776809 308.95545,378.094545 308.564958,378.094545" id="Fill-91" fill="#382220"></path>
                        <path d="M332.540185,373.03578 C332.223177,373.03578 331.934366,372.820816 331.854046,372.497942 C331.7592,372.117687 331.989907,371.733149 332.369291,371.637229 C335.133501,370.944377 339.829668,369.234941 340.662776,367.600015 C340.786674,367.357645 340.807181,367.148676 340.727716,366.928573 C334.660125,355.482377 307.60761,356.580321 307.335034,356.592311 C306.952231,356.609439 306.613007,356.307976 306.595917,355.915731 C306.577973,355.524342 306.880456,355.192903 307.270948,355.174918 C308.422774,355.122676 335.554755,354.030727 342.000021,366.304235 L342.030782,366.371037 C342.27516,366.981672 342.238418,367.62999 341.923119,368.245763 C340.526061,370.987198 333.5083,372.814821 332.712788,373.01437 C332.655539,373.028929 332.59658,373.03578 332.540185,373.03578" id="Fill-93" fill="#382220"></path>
                        <path d="M310.023623,370.15115 C301.803623,370.15115 295.837715,366.978931 295.777902,366.946387 C295.606153,366.853892 295.542922,366.638928 295.635205,366.465929 C295.728342,366.293787 295.942814,366.229554 296.114563,366.322049 C296.171812,366.35288 301.991606,369.441169 310.023623,369.441169 C310.219297,369.441169 310.377374,369.600466 310.377374,369.795732 C310.377374,369.991854 310.219297,370.15115 310.023623,370.15115" id="Fill-95" fill="#5B423E"></path>
                        <path d="M321.320313,369.518933 C321.186161,369.518933 321.057136,369.441855 320.998178,369.311677 C320.916148,369.133539 320.99476,368.922858 321.172489,368.841497 C322.233741,368.354188 323.805965,367.42496 323.975151,366.884552 C323.987113,366.846869 323.986259,366.826315 323.981986,366.813469 C321.343383,363.473389 309.601259,363.79712 309.485905,363.800545 C309.282541,363.811679 309.127028,363.652383 309.121901,363.45626 C309.115065,363.260994 309.26887,363.096559 309.463689,363.091421 C309.965263,363.076005 321.739857,362.753987 324.560462,366.403238 L324.585242,366.440921 C324.70145,366.6379 324.723666,366.864855 324.650182,367.097804 C324.326338,368.130659 321.942367,369.268856 321.467281,369.486389 C321.419431,369.508656 321.369872,369.518933 321.320313,369.518933" id="Fill-97" fill="#5B423E"></path>
                        <path d="M356.209171,405.085045 C356.209171,405.085045 364.68124,402.735855 367.903446,394.893519 C375.022034,377.566213 386.715454,389.7969 386.715454,389.7969 C386.715454,389.7969 391.79955,395.402239 392.817223,396.421392 C393.834042,397.441401 396.921242,402.691321 396.394034,403.888611 C395.867681,405.085045 383.156587,402.537163 383.156587,402.537163 L377.563227,403.556316 L368.920265,407.12335 C368.920265,407.12335 363.836169,412.729545 358.24281,410.69124 C352.64945,408.652935 356.209171,405.085045 356.209171,405.085045" id="Fill-99" fill="#F7CAB7"></path>
                        <path d="M87.7362811,369.79616 C87.7362811,369.79616 101.932443,410.585385 105.402445,420.387235 C108.872447,430.189084 121.807412,442.521686 136.949472,435.564043 C186.902635,412.616839 257.774073,358.097316 257.774073,358.097316 L245.786716,335.330819 L140.104175,396.356645 L127.485364,361.575282 L87.7362811,369.79616 Z" id="Fill-101" fill="#FEDDCC"></path>
                        <path d="M261.244502,298.968741 L287.112723,360.942636 C287.112723,360.942636 288.374775,361.575538 289.005374,360.31059 C289.636827,359.045642 263.137153,298.336695 263.137153,298.336695 L261.244502,298.968741 Z" id="Fill-103" fill="#FFFFFF"></path>
                        <path d="M239.792695,338.809127 C240.344683,338.975274 249.256803,328.691254 251.148599,322.822135 C253.020743,317.011252 264.093818,307.556257 274.755893,304.503938 C285.417113,301.450763 283.893593,309.846353 285.417113,311.373369 C286.939778,312.899528 290.747296,313.662608 291.508628,316.715784 C292.270816,319.768959 289.985963,322.059055 291.508628,324.348294 C293.032148,326.63839 295.316146,325.87531 296.078333,328.164549 C296.839666,330.454645 294.554814,334.2709 296.078333,336.560996 C297.600999,338.851092 299.124518,339.614171 299.885851,341.903411 C300.647184,344.193506 292.270816,357.169288 267.901335,359.458527 C267.901335,359.458527 256.507834,358.904417 250.518855,363.472618 C244.529876,368.039963 239.792695,338.809127 239.792695,338.809127" id="Fill-105" fill="#FEDDCC"></path>
                        <path d="M94.700894,499.805082 C94.1019106,499.805082 93.5473597,499.673192 93.0346778,499.411124 C88.6555198,497.174127 90.0192536,486.055943 90.1892931,484.796134 C90.2414158,484.407314 90.5994387,484.134969 90.985659,484.188068 C91.3727339,484.24031 91.6444553,484.597442 91.5923326,484.985405 C91.1693701,488.133644 90.71821,496.635432 93.6780936,498.147032 C95.2306653,498.939231 97.8043285,497.675995 101.127362,494.496068 C118.73115,477.654358 149.908191,449.400709 160.924871,449.400709 C161.316218,449.400709 161.633227,449.717588 161.633227,450.109834 C161.633227,450.502079 161.316218,450.818958 160.924871,450.818958 C153.238915,450.818958 131.799412,467.112553 102.10573,495.522072 C99.1099584,498.388546 96.6670291,499.805082 94.700894,499.805082" id="Fill-107" fill="#5B1D12"></path>
                    </g>
                </g>
            </g>
        </g>
    </g>
</svg>